# xmcd
#
# Track frame offsets:
# 150
# 16308
# 54580
# 68507
# 89643
# 111051
# 137646
# 158343
# 179788
# 201137
# 221978
# 237068
# 263457
# 274151
# 295374
# 306225
#
# Disc length: 4349 seconds
#
#
# Revision: 0
# Processed by: cddbd v1.5.1PL0 Copyright (c) Steve Scherf et al.
# Submitted via: FreeRIP 2.35 
#
DISCID=e910fb10
DTITLE=RSCDS Vol 2 - Country Dances
DYEAR=1900
DGENRE=Folk
TTITLE0=The Dashing White Sergeant
TTITLE1=The Eightsome Reel
TTITLE2=The Foursome Reel
TTITLE3=Hamilton House
TTITLE4=Inverness Country Dance
TTITLE5=The Duke and Duchess of Edinburgh
TTITLE6=The Machine Without Horses
TTITLE7=The Reel of the 51st. Division
TTITLE8=The Duke of Perth
TTITLE9=Scottish Reform
TTITLE10=Waltz Country Dance
TTITLE11=Mairi's Wedding
TTITLE12=Postie's Jig
TTITLE13=Petronella
TTITLE14=The Dunedin Festival Dance - Highland Welcome
TTITLE15=Strip the Willow
EXTD=
EXTT0=
EXTT1=
EXTT2=
EXTT3=
EXTT4=
EXTT5=
EXTT6=
EXTT7=
EXTT8=
EXTT9=
EXTT10=
EXTT11=
EXTT12=
EXTT13=
EXTT14=
EXTT15=
PLAYORDER=
